<?xml version="1.0" standalone="no"?>
<!DOCTYPE svg PUBLIC "-//W3C//DTD SVG 20010904//EN"
 "http://www.w3.org/TR/2001/REC-SVG-20010904/DTD/svg10.dtd">
<svg version="1.0" xmlns="http://www.w3.org/2000/svg"
 width="1256.000000pt" height="1256.000000pt" viewBox="0 0 1256.000000 1256.000000"
 preserveAspectRatio="xMidYMid meet">
<metadata>
Created by potrace 1.14, written by Peter Selinger 2001-2017
</metadata>
<g transform="translate(0.000000,1256.000000) scale(0.100000,-0.100000)"
fill="#000000" stroke="none">
<path d="M6089 9036 c-2 -2 -35 -6 -74 -9 -141 -12 -308 -43 -450 -82 -33 -9
-67 -18 -76 -20 -8 -2 -53 -17 -100 -33 -486 -172 -892 -450 -1212 -832 -40
-47 -78 -91 -84 -98 -7 -7 -13 -17 -13 -20 0 -4 -10 -18 -23 -32 -13 -14 -32
-40 -42 -57 -11 -18 -23 -33 -27 -33 -4 0 -8 -6 -8 -12 0 -7 -7 -21 -14 -31
-14 -18 -50 -20 -266 -16 -8 0 -35 -1 -60 -2 -25 0 -49 0 -55 1 -5 1 -14 1
-20 0 -14 -2 -118 -3 -130 0 -5 1 -14 1 -20 0 -14 -2 -88 -3 -100 0 -5 1 -12
2 -15 1 -4 -1 -157 -2 -240 0 -8 0 -35 -1 -60 -2 -25 0 -49 0 -55 1 -5 1 -14
1 -20 0 -14 -2 -118 -3 -130 0 -5 1 -14 1 -20 0 -14 -2 -88 -3 -100 0 -5 1
-12 2 -15 1 -4 -1 -157 -2 -240 0 -8 0 -35 -1 -60 -2 -25 0 -49 0 -55 1 -5 1
-14 1 -20 0 -14 -2 -118 -3 -130 0 -5 1 -14 1 -20 0 -14 -2 -88 -3 -100 0 -5
1 -12 2 -15 1 -4 -1 -157 -2 -240 0 -8 0 -35 -1 -60 -2 -25 0 -49 0 -55 1 -5
1 -14 1 -20 0 -14 -2 -118 -3 -130 0 -5 1 -14 1 -20 0 -14 -2 -88 -3 -100 0
-5 1 -12 2 -15 1 -4 -1 -157 -2 -240 0 -8 0 -35 -1 -60 -2 -25 0 -49 0 -55 1
-5 1 -14 1 -20 0 -14 -2 -118 -3 -130 0 -5 1 -14 1 -20 0 -14 -2 -88 -3 -100
0 -5 1 -12 2 -15 1 -4 -1 -157 -2 -240 0 -8 0 -35 -1 -60 -2 -25 0 -49 0 -55
1 -5 1 -14 1 -20 0 -14 -2 -118 -3 -130 0 -5 1 -12 2 -15 1 -15 -6 -110 -5
-110 1 0 4 -12 3 -27 -1 -16 -4 -41 -6 -57 -4 -25 4 0 -25 169 -194 l198 -198
1671 -1 c1654 0 1671 0 1668 -19 -2 -11 -10 -33 -17 -50 -19 -40 -89 -256
-106 -325 -7 -30 -16 -57 -20 -60 -4 -3 -620 -5 -1368 -5 -749 0 -1361 -2
-1361 -5 0 -3 87 -92 194 -197 l193 -193 1139 0 1139 0 0 -230 0 -230 -909 0
-910 0 198 -198 197 -197 745 0 745 0 15 -55 c38 -138 47 -166 54 -185 11 -25
70 -184 76 -205 4 -13 -64 -15 -580 -14 -323 0 -586 -2 -586 -5 0 -5 185 -194
254 -259 21 -20 59 -58 83 -83 l44 -46 192 -1 c106 0 201 -3 212 -5 11 -2 24
-2 29 1 5 3 107 5 225 4 253 -2 233 -2 294 -1 27 1 49 -1 51 -2 1 -2 32 -47
68 -99 152 -219 385 -463 583 -610 33 -25 62 -48 63 -52 2 -5 10 -8 17 -8 7 0
15 -3 17 -7 8 -19 165 -115 323 -199 163 -85 420 -183 580 -219 6 -2 28 -7 50
-13 22 -6 60 -14 85 -17 24 -4 48 -9 51 -11 7 -4 24 -6 199 -28 145 -19 567
-13 655 8 11 3 43 8 70 11 167 21 439 99 635 182 103 44 275 131 354 180 141
87 329 229 431 324 119 112 143 137 251 260 49 56 163 209 191 257 21 35 31
43 52 42 14 -1 31 -1 36 0 20 4 431 1 450 -3 11 -3 24 -2 29 1 13 7 431 7 443
-1 5 -3 98 83 207 192 109 109 194 200 190 203 -5 2 -269 4 -586 4 -379 -1
-578 2 -578 9 0 6 7 24 16 40 20 39 98 274 114 345 7 30 16 57 21 60 4 3 341
5 748 5 l741 0 197 197 198 198 -910 0 -910 0 0 230 0 230 1140 0 1140 0 193
194 c146 146 189 194 175 198 -10 2 -625 4 -1366 3 l-1348 0 -15 55 c-36 129
-77 256 -86 268 -6 6 -8 12 -4 12 3 0 -5 25 -19 56 -14 31 -25 59 -25 63 0 3
753 6 1673 6 l1672 -1 198 198 198 197 -104 -1 c-57 -1 -109 2 -115 6 -7 4
-12 4 -12 -1 0 -9 -82 -8 -105 1 -8 3 -15 2 -15 -2 0 -8 -128 -8 -136 1 -3 3
-12 3 -18 1 -23 -9 -97 -10 -102 -2 -3 5 -10 6 -15 2 -6 -3 -46 -5 -90 -5
-104 2 -96 2 -162 -1 -31 -2 -57 0 -57 4 0 4 -6 5 -14 2 -23 -9 -206 -10 -206
-1 0 5 -5 5 -11 2 -10 -7 -102 -10 -124 -5 -5 1 -14 1 -20 0 -23 -4 -105 -1
-115 5 -5 3 -10 3 -10 -2 0 -4 -33 -7 -72 -6 -40 2 -104 2 -143 2 -38 -1 -79
0 -90 1 -24 2 -25 2 -98 -2 -31 -2 -57 1 -57 5 0 5 -5 5 -10 2 -14 -9 -225 -9
-239 -1 -6 4 -11 4 -11 -1 0 -9 -82 -8 -105 1 -8 3 -15 2 -15 -2 0 -8 -128 -8
-136 1 -3 3 -12 3 -18 1 -23 -9 -97 -10 -102 -2 -3 5 -10 6 -15 2 -6 -3 -46
-5 -90 -5 -104 2 -96 2 -162 -1 -31 -2 -57 0 -57 4 0 4 -6 5 -14 2 -23 -9
-206 -10 -206 -1 0 5 -5 5 -11 2 -10 -7 -102 -10 -124 -5 -5 1 -14 1 -20 0
-23 -4 -105 -1 -115 5 -5 3 -10 3 -10 -2 0 -4 -33 -7 -72 -6 -40 2 -104 2
-143 2 -38 -1 -79 0 -90 1 -24 2 -25 2 -98 -2 -31 -2 -57 0 -57 3 0 4 -14 4
-31 0 -16 -3 -49 -5 -73 -3 -38 3 -45 8 -71 50 -36 58 -27 45 -131 177 -159
201 -271 312 -505 500 -19 15 -174 119 -243 164 -136 86 -437 219 -631 278
-82 24 -286 71 -340 78 -16 2 -64 9 -105 15 -66 11 -522 24 -531 16z m406
-400 c64 -6 183 -22 225 -31 14 -3 39 -8 55 -11 79 -14 261 -69 375 -114 127
-50 380 -181 388 -202 2 -4 9 -8 16 -8 6 0 27 -13 46 -30 19 -16 39 -29 43
-30 34 -1 370 -309 447 -409 14 -18 35 -44 48 -59 92 -107 332 -523 332 -574
0 -8 4 -18 9 -23 29 -31 126 -401 145 -555 24 -190 24 -454 1 -616 -51 -355
-162 -660 -348 -959 -28 -44 -53 -82 -56 -85 -3 -3 -17 -21 -31 -40 -89 -128
-259 -311 -385 -415 -33 -28 -62 -53 -65 -56 -6 -6 -158 -113 -205 -144 -142
-93 -464 -237 -605 -271 -8 -1 -52 -12 -98 -23 -82 -21 -124 -29 -172 -36 -14
-2 -43 -6 -65 -9 -126 -18 -465 -30 -465 -16 0 3 -15 5 -34 4 -18 -1 -60 3
-92 7 -33 5 -79 11 -104 14 -118 14 -396 92 -482 136 -10 5 -22 9 -28 9 -17 0
-196 88 -290 142 -115 66 -120 70 -149 95 -14 13 -30 23 -34 23 -5 0 -30 17
-55 38 -26 20 -55 44 -66 52 -116 91 -300 279 -376 383 -19 27 -43 56 -52 65
-10 9 -18 22 -18 28 0 7 -3 14 -8 16 -23 10 -186 299 -235 418 -8 19 -21 51
-30 70 -29 68 -97 293 -110 370 -3 14 -10 52 -16 85 -58 322 -42 691 45 1015
88 331 272 680 489 928 59 68 205 213 260 261 72 60 223 171 234 171 6 0 11 5
11 10 0 6 8 14 18 17 9 4 45 24 79 44 215 131 536 250 767 285 22 3 43 7 46 9
5 3 51 9 165 21 33 3 61 7 62 8 4 4 313 -2 368 -8z"/>
<path d="M4401 6895 c-5 -5 -8 -287 -7 -625 l1 -615 110 0 c61 -1 115 0 121 2
7 3 10 139 10 444 -1 243 2 445 5 450 4 7 44 -103 55 -151 0 -3 3 -12 7 -20 5
-14 29 -88 32 -100 1 -3 4 -12 7 -20 4 -8 21 -62 38 -120 18 -58 36 -114 41
-125 4 -11 26 -81 49 -155 23 -74 46 -144 50 -155 5 -11 10 -27 13 -35 3 -12
29 -15 139 -15 l136 -1 35 111 c20 60 54 171 77 245 23 74 47 149 53 165 7 17
12 32 12 35 1 3 11 39 25 80 13 41 24 80 26 85 1 6 16 51 32 100 l30 90 2 -75
c1 -41 1 -79 0 -85 -1 -8 -1 -70 1 -140 0 -11 0 -150 0 -309 0 -159 2 -292 5
-295 3 -3 59 -6 125 -6 l119 -1 1 271 c2 788 1 966 -5 973 -4 4 -84 7 -177 7
-175 0 -186 -2 -193 -41 -2 -11 -16 -55 -31 -99 -15 -44 -28 -84 -29 -90 -3
-16 -75 -244 -98 -309 -11 -32 -22 -66 -23 -75 -2 -9 -4 -17 -5 -18 -2 -2 -3
-6 -4 -10 -2 -5 -11 -35 -21 -68 -11 -33 -20 -62 -20 -65 -1 -3 -4 -12 -8 -20
-6 -17 -30 -89 -33 -105 -2 -5 -5 -20 -8 -32 -16 -71 -24 -58 -90 153 -37 115
-73 227 -81 249 -7 22 -37 114 -65 205 -29 91 -64 201 -78 245 l-27 79 -173 1
c-109 1 -176 -3 -181 -10z"/>
<path d="M6042 6895 c-11 -17 -8 -1234 3 -1238 9 -3 198 -2 235 2 13 1 15 76
13 613 0 337 -2 618 -2 623 -1 14 -240 14 -249 0z"/>
<path d="M6582 6900 c-4 -3 -7 -284 -7 -625 l0 -620 122 0 c75 0 124 3 126 10
2 5 3 207 2 447 0 241 3 434 6 430 3 -4 22 -36 41 -72 19 -36 44 -81 55 -100
11 -19 39 -71 63 -115 24 -44 62 -114 85 -155 23 -41 57 -102 75 -135 18 -33
44 -80 58 -105 14 -25 43 -79 65 -120 22 -41 44 -77 48 -80 6 -4 282 -5 299
-1 7 1 7 1241 0 1242 -3 1 -58 2 -122 3 -112 1 -118 0 -119 -19 0 -11 -1 -212
-2 -447 0 -235 -3 -426 -6 -424 -3 3 -19 30 -36 63 -16 32 -32 60 -35 63 -3 3
-14 23 -26 45 -21 41 -60 111 -144 265 -26 47 -64 117 -85 155 -21 39 -55 101
-77 138 -21 38 -38 71 -38 74 0 3 -9 18 -21 34 -11 16 -17 29 -12 29 4 0 -1 6
-12 12 -20 12 -288 19 -303 8z"/>
<path d="M7910 6880 c-4 -210 0 -1213 4 -1218 12 -11 236 -9 245 2 4 6 8 288
7 626 l-1 614 -127 1 -128 1 0 -26z"/>
</g>
</svg>
